<?xml version="1.0" encoding="iso-8859-1"?>
<!-- Generator: Adobe Illustrator 19.0.0, SVG Export Plug-In . SVG Version: 6.00 Build 0)  -->
<svg version="1.1" id="Layer_1" xmlns="http://www.w3.org/2000/svg" xmlns:xlink="http://www.w3.org/1999/xlink" x="0px" y="0px"
	 viewBox="0 0 488.952 488.952" style="enable-background:new 0 0 488.952 488.952;" xml:space="preserve">
<path style="fill:#121C1B;" d="M51.4,479.552c-12,12-30.4,12-42.4,0l0,0c-12-12-12-30.4,0-42.4l13.6-13.6
	c12-11.2,30.4-11.2,42.4,0.8l0,0c12,12,12,30.4,0,42.4L51.4,479.552z"/>
<path style="fill:#283538;" d="M91.4,453.952c-17.6,17.6-42.4,20.8-56,8l-8-8c-13.6-13.6-9.6-38.4,8-56l228.8-264.8
	c17.6-17.6,42.4-20.8,56-8l44,44c13.6,13.6,9.6,38.4-8,56L91.4,453.952z"/>
<path style="fill:#121C1B;" d="M319.4,125.152l44,44c13.6,13.6,9.6,38.4-8,56l-264,228.8c-17.6,17.6-42.4,20.8-56,8l-8-8"/>
<path style="fill:#B6CCD1;" d="M453,191.552c-42.4,42.4-112,42.4-155.2,0c-42.4-42.4-42.4-112,0-155.2c42.4-42.4,120-50.4,162.4-7.2
	C503.4,71.552,495.4,148.352,453,191.552z"/>
<path style="fill:#CADCE0;" d="M297.8,36.352c42.4-42.4,120-50.4,162.4-7.2"/>
<g>
	<path style="fill:#A3C0C4;" d="M460.2,29.152c42.4,42.4,35.2,120-7.2,162.4s-112,42.4-155.2,0"/>
	<path style="fill:#A3C0C4;" d="M365,244.352c-5.6,5.6-14.4,5.6-20,0l-100-100.8c-5.6-5.6-5.6-14.4,0-20l0,0c5.6-5.6,14.4-5.6,20,0
		l100,100.8C370.6,229.952,370.6,238.752,365,244.352L365,244.352z"/>
	<path style="fill:#A3C0C4;" d="M469,199.552c-2.4,2.4-6.4,2.4-9.6,0l-169.6-169.6c-2.4-2.4-2.4-6.4,0-9.6l0,0
		c2.4-2.4,6.4-2.4,9.6,0l169.6,170.4C471.4,193.152,471.4,197.152,469,199.552L469,199.552z"/>
</g>
<path style="fill:#EA398A;" d="M257.8,252.352c-5.6,5.6-15.2,5.6-20.8,0c-5.6-5.6-5.6-15.2,0-20.8s15.2-5.6,20.8,0
	C264.2,237.152,264.2,245.952,257.8,252.352z"/>
<path style="fill:#D81D7B;" d="M247.4,226.752c8,0,14.4,6.4,14.4,14.4s-6.4,14.4-14.4,14.4"/>
<g>
</g>
<g>
</g>
<g>
</g>
<g>
</g>
<g>
</g>
<g>
</g>
<g>
</g>
<g>
</g>
<g>
</g>
<g>
</g>
<g>
</g>
<g>
</g>
<g>
</g>
<g>
</g>
<g>
</g>
</svg>
