<?xml version="1.0" encoding="iso-8859-1"?>
<!-- Generator: Adobe Illustrator 19.0.0, SVG Export Plug-In . SVG Version: 6.00 Build 0)  -->
<svg version="1.1" id="Layer_1" xmlns="http://www.w3.org/2000/svg" xmlns:xlink="http://www.w3.org/1999/xlink" x="0px" y="0px"
	 viewBox="0 0 488 488" style="enable-background:new 0 0 488 488;" xml:space="preserve">
<path style="fill:#7D8B8C;" d="M488,365.6c0,17.6-14.4,31.2-31.2,31.2H31.2C13.6,396.8,0,382.4,0,365.6v-284
	C0,64,14.4,50.4,31.2,50.4H456c17.6,0,31.2,14.4,31.2,31.2v284H488z"/>
<path style="fill:#596666;" d="M488,406.4c0,17.6-14.4,31.2-31.2,31.2H31.2C13.6,437.6,0,423.2,0,406.4v-284
	c0-17.6,14.4-31.2,31.2-31.2H456c17.6,0,31.2,14.4,31.2,31.2v284H488z"/>
<path style="fill:#475151;" d="M168,102.4c-77.6,0-140.8,63.2-140.8,140.8c0,53.6,30.4,144,74.4,194.4h132.8
	c44.8-50.4,74.4-140,74.4-194.4C308.8,165.6,245.6,102.4,168,102.4z"/>
<path style="fill:#6A7677;" d="M488,373.6c0,17.6-14.4,31.2-31.2,31.2H31.2C13.6,404.8,0,390.4,0,373.6V90.4
	c0-17.6,14.4-31.2,31.2-31.2H456c17.6,0,31.2,14.4,31.2,31.2v283.2H488z"/>
<g>
	<path style="fill:#596666;" d="M0,90.4c0-17.6,14.4-31.2,31.2-31.2H456c17.6,0,31.2,14.4,31.2,31.2v283.2
		c0,17.6-14.4,31.2-31.2,31.2"/>
	<path style="fill:#596666;" d="M168,102.4c-77.6,0-140.8,63.2-140.8,140.8c0,44,20,111.2,51.2,161.6h180
		c31.2-50.4,51.2-118.4,51.2-161.6C308.8,165.6,245.6,102.4,168,102.4z"/>
</g>
<polygon style="fill:#475151;" points="488,176.8 432.8,121.6 376,177.6 488,289.6 "/>
<circle style="fill:#7D8B8C;" cx="168" cy="243.2" r="140.8"/>
<circle style="fill:#2A3332;" cx="168" cy="232" r="140.8"/>
<path style="fill:#121C1B;" d="M68,132c55.2-55.2,144.8-55.2,199.2,0c55.2,55.2,55.2,144.8,0,199.2"/>
<circle style="fill:#00B3C6;" cx="168" cy="232" r="60.8"/>
<path style="fill:#05D8DD;" d="M107.2,232c0-33.6,27.2-60.8,60.8-60.8s60.8,27.2,60.8,60.8"/>
<path style="fill:#009FC4;" d="M179.2,223.2l-21.6,21.6l40,40c4.8-2.4,8.8-5.6,12.8-9.6c3.2-3.2,6.4-7.2,8.8-11.2L179.2,223.2z"/>
<circle style="fill:#121C1B;" cx="168" cy="232" r="16.8"/>
<path style="fill:#2A3332;" d="M168,248.8c-9.6,0-16.8-8-16.8-16.8c0-9.6,8-16.8,16.8-16.8"/>
<g>
	<path style="fill:#726C6A;" d="M168,350.4c-64.8,0-118.4-52.8-118.4-118.4c0-2.4,1.6-4.8,4.8-4.8s4.8,1.6,4.8,4.8
		c0,60,48.8,109.6,109.6,109.6c2.4,0,4.8,1.6,4.8,4.8C172,348,170.4,350.4,168,350.4z"/>
	<path style="fill:#726C6A;" d="M281.6,236c-2.4,0-4.8-1.6-4.8-4.8c0-60-48.8-109.6-109.6-109.6c-2.4,0-4.8-1.6-4.8-4.8
		s1.6-4.8,4.8-4.8c64.8,0,118.4,52.8,118.4,118.4C285.6,234.4,284,236,281.6,236z"/>
	<path style="fill:#726C6A;" d="M168,322.4c-49.6,0-90.4-40.8-90.4-90.4c0-2.4,1.6-4.8,4.8-4.8c2.4,0,4.8,1.6,4.8,4.8
		c0,44.8,36.8,81.6,81.6,81.6c2.4,0,4.8,1.6,4.8,4.8C172,320.8,170.4,322.4,168,322.4z"/>
	<path style="fill:#726C6A;" d="M253.6,236c-2.4,0-4.8-1.6-4.8-4.8c0-44.8-36.8-81.6-81.6-81.6c-2.4,0-4.8-1.6-4.8-4.8
		s1.6-4.8,4.8-4.8c49.6,0,90.4,40.8,90.4,90.4C258.4,234.4,256,236,253.6,236z"/>
</g>
<path style="fill:#475151;" d="M354.4,397.6c-3.2,0-5.6-0.8-8-3.2c-4.8-4.8-4.8-12,0-16l49.6-49.6V109.6c0-6.4,4.8-11.2,11.2-11.2
	c6.4,0,11.2,4.8,11.2,11.2v224c0,3.2-1.6,5.6-3.2,8l-52.8,52.8C360.8,396,357.6,397.6,354.4,397.6z"/>
<path style="fill:#05D8DD;" d="M348.8,384c-3.2,0-5.6-0.8-8-3.2c-4.8-4.8-4.8-12,0-16l49.6-49.6V96c0-6.4,4.8-11.2,11.2-11.2
	c6.4,0,11.2,4.8,11.2,11.2v224c0,3.2-1.6,5.6-3.2,8l-52.8,52.8C354.4,383.2,352,384,348.8,384z"/>
<rect x="390.4" y="140" style="fill:#00B3C6;" width="23.2" height="71.2"/>
<path style="fill:#2A3332;" d="M436.8,175.2c0,4-3.2,7.2-7.2,7.2h-56c-4,0-7.2-3.2-7.2-7.2v-56c0-4,3.2-7.2,7.2-7.2h56
	c4,0,7.2,3.2,7.2,7.2V175.2z"/>
<path style="fill:#121C1B;" d="M429.6,111.2c4,0,7.2,3.2,7.2,7.2v56c0,4-3.2,7.2-7.2,7.2h-56c-4,0-7.2-3.2-7.2-7.2"/>
<g>
	<circle style="fill:#7D8B8C;" cx="332.8" cy="234.4" r="5.6"/>
	<circle style="fill:#7D8B8C;" cx="332.8" cy="260" r="5.6"/>
	<circle style="fill:#7D8B8C;" cx="332.8" cy="284.8" r="5.6"/>
	<circle style="fill:#7D8B8C;" cx="332.8" cy="309.6" r="5.6"/>
	<circle style="fill:#7D8B8C;" cx="362.4" cy="234.4" r="5.6"/>
	<circle style="fill:#7D8B8C;" cx="362.4" cy="260" r="5.6"/>
	<circle style="fill:#7D8B8C;" cx="362.4" cy="284.8" r="5.6"/>
	<circle style="fill:#7D8B8C;" cx="362.4" cy="309.6" r="5.6"/>
	<circle style="fill:#7D8B8C;" cx="401.6" cy="146.4" r="8.8"/>
</g>
<g>
</g>
<g>
</g>
<g>
</g>
<g>
</g>
<g>
</g>
<g>
</g>
<g>
</g>
<g>
</g>
<g>
</g>
<g>
</g>
<g>
</g>
<g>
</g>
<g>
</g>
<g>
</g>
<g>
</g>
</svg>
